<?xml version="1.0" encoding="UTF-8" standalone="no"?>
<!-- Created with Inkscape (http://www.inkscape.org/) -->

<svg
   xmlns:dc="http://purl.org/dc/elements/1.1/"
   xmlns:cc="http://creativecommons.org/ns#"
   xmlns:rdf="http://www.w3.org/1999/02/22-rdf-syntax-ns#"
   xmlns:svg="http://www.w3.org/2000/svg"
   xmlns="http://www.w3.org/2000/svg"
   xmlns:sodipodi="http://sodipodi.sourceforge.net/DTD/sodipodi-0.dtd"
   xmlns:inkscape="http://www.inkscape.org/namespaces/inkscape"
   id="svg3355"
   version="1.1"
   inkscape:version="0.91 r13725"
   xml:space="preserve"
   width="419.99875"
   height="417.74875"
   viewBox="0 0 419.99875 417.74875"
   sodipodi:docname="Palladio-Logo-stilisiert-vektor.pdf.2015_07_07_15_06_04.0.svg"
   inkscape:export-filename="/Users/snowball/Desktop/Palladio-Logo-stilisiert-vektor.png"
   inkscape:export-xdpi="64"
   inkscape:export-ydpi="64"
   enable-background="new"><metadata
     id="metadata3361"><rdf:RDF><cc:Work
         rdf:about=""><dc:format>image/svg+xml</dc:format><dc:type
           rdf:resource="http://purl.org/dc/dcmitype/StillImage" /><dc:title /></cc:Work></rdf:RDF></metadata><defs
     id="defs3359"><clipPath
       clipPathUnits="userSpaceOnUse"
       id="clipPath3371"><path
         d="m 0,0 335.99899,0 0,334.199 L 0,334.199 0,0 Z"
         id="path3373"
         inkscape:connector-curvature="0" /></clipPath><mask
       maskUnits="userSpaceOnUse"
       x="0"
       y="0"
       width="1"
       height="1"
       id="mask3375"><g
         id="g3377"><g
           clip-path="url(#clipPath3371)"
           id="g3379"><path
             d="m 0,0 335.99899,0 0,334.199 L 0,334.199 0,0 Z"
             style="fill:#ffffff;fill-opacity:0.18620701;fill-rule:nonzero;stroke:none"
             id="path3381"
             inkscape:connector-curvature="0" /></g></g></mask><clipPath
       clipPathUnits="userSpaceOnUse"
       id="clipPath3387"><path
         d="m 0,0 335.99899,0 0,334.199 L 0,334.199 0,0 Z"
         id="path3389"
         inkscape:connector-curvature="0" /></clipPath><clipPath
       clipPathUnits="userSpaceOnUse"
       id="clipPath3391"><path
         d="M 0,0 336,0 336,335 0,335 0,0 Z"
         id="path3393"
         inkscape:connector-curvature="0" /></clipPath><pattern
       patternUnits="userSpaceOnUse"
       x="0"
       y="0"
       width="336"
       height="335"
       id="pattern3395"><g
         id="g3397" /><g
         id="g3399"><g
           clip-path="url(#clipPath3391)"
           id="g3401"><g
             id="g3403" /></g></g></pattern></defs><sodipodi:namedview
     pagecolor="#ffffff"
     bordercolor="#666666"
     borderopacity="1"
     objecttolerance="10"
     gridtolerance="10"
     guidetolerance="10"
     inkscape:pageopacity="0"
     inkscape:pageshadow="2"
     inkscape:window-width="1440"
     inkscape:window-height="808"
     id="namedview3357"
     showgrid="false"
     inkscape:zoom="1.4506327"
     inkscape:cx="85.57091"
     inkscape:cy="208.87437"
     inkscape:window-x="0"
     inkscape:window-y="0"
     inkscape:window-maximized="1"
     inkscape:current-layer="g3363" /><g
     id="g3363"
     inkscape:groupmode="layer"
     inkscape:label="Palladio-Logo-stilisiert-vektor"
     transform="matrix(1.25,0,0,-1.25,0,417.74876)"
     style="display:inline"><g
       id="g4434"><rect
         transform="scale(1,-1)"
         y="-331.99307"
         x="124.63527"
         height="328.13269"
         width="88.237358"
         id="rect3628"
         style="fill:#ffffff;fill-rule:evenodd;stroke:none;stroke-width:0.80000001px;stroke-linecap:butt;stroke-linejoin:miter;stroke-opacity:1" /><rect
         transform="scale(1,-1)"
         y="-211.21819"
         x="4.9633512"
         height="86.582909"
         width="326.47821"
         id="rect4430"
         style="fill:#ffffff;stroke:none" /><rect
         transform="scale(1,-1)"
         y="-249.27054"
         x="87.685883"
         height="161.03317"
         width="160.4817"
         id="rect4432"
         style="fill:#ffffff;stroke:none" /></g><g
       id="g3365"
       style="opacity:0.98200001;fill:#000000;fill-opacity:0;image-rendering:auto;stroke:#000000;stroke-opacity:1"
       inkscape:export-xdpi="64.714478"
       inkscape:export-ydpi="64.714478"><g
         id="g3367"
         style="fill:#000000;fill-opacity:0;stroke:#000000;stroke-opacity:1"><g
           id="g3369"
           style="fill:#000000;fill-opacity:0;stroke:#000000;stroke-opacity:1" /><g
           id="g3383"
           mask="url(#mask3375)"
           style="fill:#000000;fill-opacity:0;stroke:#000000;stroke-opacity:1"><g
             id="g3385"
             style="fill:#000000;fill-opacity:0;stroke:#000000;stroke-opacity:1" /><g
             id="g3405"
             style="fill:#000000;fill-opacity:0;stroke:#000000;stroke-opacity:1"><g
               clip-path="url(#clipPath3387)"
               id="g3407"
               style="fill:#000000;fill-opacity:0;stroke:#000000;stroke-opacity:1"><g
                 id="g3409"
                 style="fill:#000000;fill-opacity:0;stroke:#000000;stroke-opacity:1"><path
                   d="m 0,0 335.99899,0 0,334.199 L 0,334.199 0,0 Z"
                   style="fill:#000000;fill-opacity:0;fill-rule:nonzero;stroke:#000000;stroke-opacity:1"
                   id="path3411"
                   inkscape:connector-curvature="0" /></g></g></g></g></g><g
         id="g3413"
         transform="matrix(1,0,0,-1,0,334.199)"
         style="fill:#000000;fill-opacity:0;stroke:#000000;stroke-opacity:1"><path
           d="m 124,2.199 88,0 0,84 36,0 0,36 84,0 0,88 -84,0 0,36 -36,0 0,84 -88,0 0,-84 -36,0 0,-36 -84,0 0,-88 84,0 0,-36 36,0 0,-84 z"
           style="fill:#000000;fill-opacity:0;stroke:#000000;stroke-width:4;stroke-linecap:butt;stroke-linejoin:miter;stroke-miterlimit:4;stroke-dasharray:none;stroke-opacity:1"
           id="path3415"
           inkscape:connector-curvature="0" /></g><g
         id="g3417"
         transform="matrix(1,0,0,-1,0,334.199)"
         style="fill:#000000;fill-opacity:0;stroke:#000000;stroke-opacity:1"><path
           d="m 62.109,139.801 c 0,5.519 -4.476,10 -10,10 -5.523,0 -10,-4.481 -10,-10 0,-5.524 4.477,-10 10,-10 5.524,0 10,4.476 10,10 z"
           style="fill:#000000;fill-opacity:0;stroke:#000000;stroke-width:4;stroke-linecap:butt;stroke-linejoin:miter;stroke-miterlimit:4;stroke-dasharray:none;stroke-opacity:1"
           id="path3419"
           inkscape:connector-curvature="0" /></g><g
         id="g3421"
         transform="matrix(1,0,0,-1,0,334.199)"
         style="fill:#000000;fill-opacity:0;stroke:#000000;stroke-opacity:1"><path
           d="m 62.512,166 c 0,5.523 -4.481,10 -10,10 -5.524,0 -10,-4.477 -10,-10 0,-5.523 4.476,-10 10,-10 5.519,0 10,4.477 10,10 z"
           style="fill:#000000;fill-opacity:0;stroke:#000000;stroke-width:4;stroke-linecap:butt;stroke-linejoin:miter;stroke-miterlimit:4;stroke-dasharray:none;stroke-opacity:1"
           id="path3423"
           inkscape:connector-curvature="0" /></g><g
         id="g3425"
         transform="matrix(1,0,0,-1,0,334.199)"
         style="fill:#000000;fill-opacity:0;stroke:#000000;stroke-opacity:1"><path
           d="m 62.512,192.199 c 0,5.524 -4.481,10 -10,10 -5.524,0 -10,-4.476 -10,-10 0,-5.523 4.476,-10 10,-10 5.519,0 10,4.477 10,10 z"
           style="fill:#000000;fill-opacity:0;stroke:#000000;stroke-width:4;stroke-linecap:butt;stroke-linejoin:miter;stroke-miterlimit:4;stroke-dasharray:none;stroke-opacity:1"
           id="path3427"
           inkscape:connector-curvature="0" /></g><g
         id="g3429"
         transform="matrix(1,0,0,-1,0,334.199)"
         style="fill:#000000;fill-opacity:0;stroke:#000000;stroke-opacity:1"><path
           d="m 5.336,130.332 27.531,0 0,71.734 -27.531,0"
           style="fill:#000000;fill-opacity:0;stroke:#000000;stroke-width:4.33507013;stroke-linecap:butt;stroke-linejoin:miter;stroke-miterlimit:4;stroke-dasharray:none;stroke-opacity:1"
           id="path3431"
           inkscape:connector-curvature="0" /></g><g
         id="g3433"
         transform="matrix(1,0,0,-1,0,334.199)"
         style="fill:#000000;fill-opacity:0;stroke:#000000;stroke-opacity:1"><path
           d="m 23.301,130.199 0,72"
           style="fill:#000000;fill-opacity:0;stroke:#000000;stroke-width:4;stroke-linecap:butt;stroke-linejoin:miter;stroke-miterlimit:4;stroke-dasharray:none;stroke-opacity:1"
           id="path3435"
           inkscape:connector-curvature="0" /></g><g
         id="g3437"
         transform="matrix(1,0,0,-1,0,334.199)"
         style="fill:#000000;fill-opacity:0;stroke:#000000;stroke-opacity:1"><path
           d="m 13.57,130.199 0,72"
           style="fill:#000000;fill-opacity:0;stroke:#000000;stroke-width:4;stroke-linecap:butt;stroke-linejoin:miter;stroke-miterlimit:4;stroke-dasharray:none;stroke-opacity:1"
           id="path3439"
           inkscape:connector-curvature="0" /></g><g
         id="g3441"
         transform="matrix(1,0,0,-1,0,334.199)"
         style="fill:#000000;fill-opacity:0;stroke:#000000;stroke-opacity:1"><path
           d="m 161.539,130.227 c -14.113,2.64 -26.508,15.406 -29.504,29.523"
           style="fill:#000000;fill-opacity:0;stroke:#000000;stroke-width:4;stroke-linecap:butt;stroke-linejoin:miter;stroke-miterlimit:4;stroke-dasharray:none;stroke-opacity:1"
           id="path3443"
           inkscape:connector-curvature="0" /></g><g
         id="g3445"
         transform="matrix(1,0,0,-1,0,334.199)"
         style="fill:#000000;fill-opacity:0;stroke:#000000;stroke-opacity:1"><path
           d="m 68,130.199 28,0 0,-36 36,0 0,-28"
           style="fill:#000000;fill-opacity:0;stroke:#000000;stroke-width:4;stroke-linecap:butt;stroke-linejoin:miter;stroke-miterlimit:4;stroke-dasharray:none;stroke-opacity:1"
           id="path3447"
           inkscape:connector-curvature="0" /></g><g
         id="g3449"
         transform="matrix(1,0,0,-1,0,334.199)"
         style="fill:#000000;fill-opacity:0;stroke:#000000;stroke-opacity:1"><path
           d="m 112,158.199 -16,0 0,-28 16,0"
           style="fill:#000000;fill-opacity:0;stroke:#000000;stroke-width:4;stroke-linecap:butt;stroke-linejoin:miter;stroke-miterlimit:4;stroke-dasharray:none;stroke-opacity:1"
           id="path3451"
           inkscape:connector-curvature="0" /></g><g
         id="g3453"
         transform="matrix(1,0,0,-1,0,334.199)"
         style="fill:#000000;fill-opacity:0;stroke:#000000;stroke-opacity:1"><path
           d="m 120,130.199 40,0 0,-12"
           style="fill:#000000;fill-opacity:0;stroke:#000000;stroke-width:4;stroke-linecap:butt;stroke-linejoin:miter;stroke-miterlimit:4;stroke-dasharray:none;stroke-opacity:1"
           id="path3455"
           inkscape:connector-curvature="0" /></g><g
         id="g3457"
         transform="matrix(1,0,0,-1,0,334.199)"
         style="fill:#000000;fill-opacity:0;stroke:#000000;stroke-opacity:1"><path
           d="m 160,110.199 0,-16 -28,0"
           style="fill:#000000;fill-opacity:0;stroke:#000000;stroke-width:4;stroke-linecap:butt;stroke-linejoin:miter;stroke-miterlimit:4;stroke-dasharray:none;stroke-opacity:1"
           id="path3459"
           inkscape:connector-curvature="0" /></g><g
         id="g3461"
         transform="matrix(1,0,0,-1,0,334.199)"
         style="fill:#000000;fill-opacity:0;stroke:#000000;stroke-opacity:1"><path
           d="m 120,158.199 12,0 0,-28"
           style="fill:#000000;fill-opacity:0;stroke:#000000;stroke-width:4;stroke-linecap:butt;stroke-linejoin:miter;stroke-miterlimit:4;stroke-dasharray:none;stroke-opacity:1"
           id="path3463"
           inkscape:connector-curvature="0" /></g><g
         id="g3465"
         transform="matrix(0,-1,-1,0,0,334.199)"
         style="fill:#000000;fill-opacity:0;stroke:#000000;stroke-opacity:1"><path
           d="m 59.141,-194.219 c 0,5.524 -4.477,10 -10,10 -5.524,0 -10,-4.476 -10,-10 0,-5.519 4.476,-10 10,-10 5.523,0 10,4.481 10,10 z"
           style="fill:#000000;fill-opacity:0;stroke:#000000;stroke-width:4;stroke-linecap:butt;stroke-linejoin:miter;stroke-miterlimit:4;stroke-dasharray:none;stroke-opacity:1"
           id="path3467"
           inkscape:connector-curvature="0" /></g><g
         id="g3469"
         transform="matrix(0,-1,-1,0,0,334.199)"
         style="fill:#000000;fill-opacity:0;stroke:#000000;stroke-opacity:1"><path
           d="m 59.539,-168.016 c 0,5.52 -4.476,10 -10,10 -5.523,0 -10,-4.48 -10,-10 0,-5.523 4.477,-10 10,-10 5.524,0 10,4.477 10,10 z"
           style="fill:#000000;fill-opacity:0;stroke:#000000;stroke-width:4;stroke-linecap:butt;stroke-linejoin:miter;stroke-miterlimit:4;stroke-dasharray:none;stroke-opacity:1"
           id="path3471"
           inkscape:connector-curvature="0" /></g><g
         id="g3473"
         transform="matrix(0,-1,-1,0,0,334.199)"
         style="fill:#000000;fill-opacity:0;stroke:#000000;stroke-opacity:1"><path
           d="m 59.539,-141.816 c 0,5.523 -4.476,10 -10,10 -5.523,0 -10,-4.477 -10,-10 0,-5.524 4.477,-10 10,-10 5.524,0 10,4.476 10,10 z"
           style="fill:#000000;fill-opacity:0;stroke:#000000;stroke-width:4;stroke-linecap:butt;stroke-linejoin:miter;stroke-miterlimit:4;stroke-dasharray:none;stroke-opacity:1"
           id="path3475"
           inkscape:connector-curvature="0" /></g><g
         id="g3477"
         transform="matrix(0,-1,-1,0,0,334.199)"
         style="fill:#000000;fill-opacity:0;stroke:#000000;stroke-opacity:1"><path
           d="m 2.367,-203.684 27.531,0 0,71.735 -27.531,0"
           style="fill:#000000;fill-opacity:0;stroke:#000000;stroke-width:4.33507013;stroke-linecap:butt;stroke-linejoin:miter;stroke-miterlimit:4;stroke-dasharray:none;stroke-opacity:1"
           id="path3479"
           inkscape:connector-curvature="0" /></g><g
         id="g3481"
         transform="matrix(0,-1,-1,0,0,334.199)"
         style="fill:#000000;fill-opacity:0;stroke:#000000;stroke-opacity:1"><path
           d="m 20.332,-203.816 0,72"
           style="fill:#000000;fill-opacity:0;stroke:#000000;stroke-width:4;stroke-linecap:butt;stroke-linejoin:miter;stroke-miterlimit:4;stroke-dasharray:none;stroke-opacity:1"
           id="path3483"
           inkscape:connector-curvature="0" /></g><g
         id="g3485"
         transform="matrix(0,-1,-1,0,0,334.199)"
         style="fill:#000000;fill-opacity:0;stroke:#000000;stroke-opacity:1"><path
           d="m 10.598,-203.816 0,72"
           style="fill:#000000;fill-opacity:0;stroke:#000000;stroke-width:4;stroke-linecap:butt;stroke-linejoin:miter;stroke-miterlimit:4;stroke-dasharray:none;stroke-opacity:1"
           id="path3487"
           inkscape:connector-curvature="0" /></g><g
         id="g3489"
         transform="matrix(-1,0,0,1,0,334.199)"
         style="fill:#000000;fill-opacity:0;stroke:#000000;stroke-opacity:1"><path
           d="m -275.059,-192.418 c 0,5.523 -4.476,10 -10,10 -5.523,0 -10,-4.477 -10,-10 0,-5.52 4.477,-10 10,-10 5.524,0 10,4.48 10,10 z"
           style="fill:#000000;fill-opacity:0;stroke:#000000;stroke-width:4;stroke-linecap:butt;stroke-linejoin:miter;stroke-miterlimit:4;stroke-dasharray:none;stroke-opacity:1"
           id="path3491"
           inkscape:connector-curvature="0" /></g><g
         id="g3493"
         transform="matrix(-1,0,0,1,0,334.199)"
         style="fill:#000000;fill-opacity:0;stroke:#000000;stroke-opacity:1"><path
           d="m -274.66,-166.215 c 0,5.52 -4.477,10 -10,10 -5.524,0 -10,-4.48 -10,-10 0,-5.523 4.476,-10 10,-10 5.523,0 10,4.477 10,10 z"
           style="fill:#000000;fill-opacity:0;stroke:#000000;stroke-width:4;stroke-linecap:butt;stroke-linejoin:miter;stroke-miterlimit:4;stroke-dasharray:none;stroke-opacity:1"
           id="path3495"
           inkscape:connector-curvature="0" /></g><g
         id="g3497"
         transform="matrix(-1,0,0,1,0,334.199)"
         style="fill:#000000;fill-opacity:0;stroke:#000000;stroke-opacity:1"><path
           d="m -274.66,-140.016 c 0,5.524 -4.477,10 -10,10 -5.524,0 -10,-4.476 -10,-10 0,-5.523 4.476,-10 10,-10 5.523,0 10,4.477 10,10 z"
           style="fill:#000000;fill-opacity:0;stroke:#000000;stroke-width:4;stroke-linecap:butt;stroke-linejoin:miter;stroke-miterlimit:4;stroke-dasharray:none;stroke-opacity:1"
           id="path3499"
           inkscape:connector-curvature="0" /></g><g
         id="g3501"
         transform="matrix(-1,0,0,1,0,334.199)"
         style="fill:#000000;fill-opacity:0;stroke:#000000;stroke-opacity:1"><path
           d="m -331.832,-201.883 27.531,0 0,71.735 -27.531,0"
           style="fill:#000000;fill-opacity:0;stroke:#000000;stroke-width:4.33507013;stroke-linecap:butt;stroke-linejoin:miter;stroke-miterlimit:4;stroke-dasharray:none;stroke-opacity:1"
           id="path3503"
           inkscape:connector-curvature="0" /></g><g
         id="g3505"
         transform="matrix(-1,0,0,1,0,334.199)"
         style="fill:#000000;fill-opacity:0;stroke:#000000;stroke-opacity:1"><path
           d="m -313.867,-202.016 0,72"
           style="fill:#000000;fill-opacity:0;stroke:#000000;stroke-width:4;stroke-linecap:butt;stroke-linejoin:miter;stroke-miterlimit:4;stroke-dasharray:none;stroke-opacity:1"
           id="path3507"
           inkscape:connector-curvature="0" /></g><g
         id="g3509"
         transform="matrix(-1,0,0,1,0,334.199)"
         style="fill:#000000;fill-opacity:0;stroke:#000000;stroke-opacity:1"><path
           d="m -323.602,-202.016 0,72"
           style="fill:#000000;fill-opacity:0;stroke:#000000;stroke-width:4;stroke-linecap:butt;stroke-linejoin:miter;stroke-miterlimit:4;stroke-dasharray:none;stroke-opacity:1"
           id="path3511"
           inkscape:connector-curvature="0" /></g><g
         id="g3513"
         transform="matrix(0,1,1,0,0,334.199)"
         style="fill:#000000;fill-opacity:0;stroke:#000000;stroke-opacity:1"><path
           d="m -273.258,141.781 c 0,5.524 -4.476,10 -10,10 -5.523,0 -10,-4.476 -10,-10 0,-5.519 4.477,-10 10,-10 5.524,0 10,4.481 10,10 z"
           style="fill:#000000;fill-opacity:0;stroke:#000000;stroke-width:4;stroke-linecap:butt;stroke-linejoin:miter;stroke-miterlimit:4;stroke-dasharray:none;stroke-opacity:1"
           id="path3515"
           inkscape:connector-curvature="0" /></g><g
         id="g3517"
         transform="matrix(0,1,1,0,0,334.199)"
         style="fill:#000000;fill-opacity:0;stroke:#000000;stroke-opacity:1"><path
           d="m -272.859,167.984 c 0,5.52 -4.477,10 -10,10 -5.524,0 -10,-4.48 -10,-10 0,-5.523 4.476,-10 10,-10 5.523,0 10,4.477 10,10 z"
           style="fill:#000000;fill-opacity:0;stroke:#000000;stroke-width:4;stroke-linecap:butt;stroke-linejoin:miter;stroke-miterlimit:4;stroke-dasharray:none;stroke-opacity:1"
           id="path3519"
           inkscape:connector-curvature="0" /></g><g
         id="g3521"
         transform="matrix(0,1,1,0,0,334.199)"
         style="fill:#000000;fill-opacity:0;stroke:#000000;stroke-opacity:1"><path
           d="m -272.859,194.184 c 0,5.523 -4.477,10 -10,10 -5.524,0 -10,-4.477 -10,-10 0,-5.524 4.476,-10 10,-10 5.523,0 10,4.476 10,10 z"
           style="fill:#000000;fill-opacity:0;stroke:#000000;stroke-width:4;stroke-linecap:butt;stroke-linejoin:miter;stroke-miterlimit:4;stroke-dasharray:none;stroke-opacity:1"
           id="path3523"
           inkscape:connector-curvature="0" /></g><g
         id="g3525"
         transform="matrix(0,1,1,0,0,334.199)"
         style="fill:#000000;fill-opacity:0;stroke:#000000;stroke-opacity:1"><path
           d="m -330.031,132.316 27.531,0 0,71.735 -27.531,0"
           style="fill:#000000;fill-opacity:0;stroke:#000000;stroke-width:4.33507013;stroke-linecap:butt;stroke-linejoin:miter;stroke-miterlimit:4;stroke-dasharray:none;stroke-opacity:1"
           id="path3527"
           inkscape:connector-curvature="0" /></g><g
         id="g3529"
         transform="matrix(0,1,1,0,0,334.199)"
         style="fill:#000000;fill-opacity:0;stroke:#000000;stroke-opacity:1"><path
           d="m -312.066,132.184 0,72"
           style="fill:#000000;fill-opacity:0;stroke:#000000;stroke-width:4;stroke-linecap:butt;stroke-linejoin:miter;stroke-miterlimit:4;stroke-dasharray:none;stroke-opacity:1"
           id="path3531"
           inkscape:connector-curvature="0" /></g><g
         id="g3533"
         transform="matrix(0,1,1,0,0,334.199)"
         style="fill:#000000;fill-opacity:0;stroke:#000000;stroke-opacity:1"><path
           d="m -321.801,132.184 0,72"
           style="fill:#000000;fill-opacity:0;stroke:#000000;stroke-width:4;stroke-linecap:butt;stroke-linejoin:miter;stroke-miterlimit:4;stroke-dasharray:none;stroke-opacity:1"
           id="path3535"
           inkscape:connector-curvature="0" /></g><g
         id="g3537"
         transform="matrix(-1,0,0,-1,0,334.199)"
         style="fill:#000000;fill-opacity:0;stroke:#000000;stroke-opacity:1"><path
           d="m -268,130.199 28,0 0,-36 36,0 0,-28"
           style="fill:#000000;fill-opacity:0;stroke:#000000;stroke-width:4;stroke-linecap:butt;stroke-linejoin:miter;stroke-miterlimit:4;stroke-dasharray:none;stroke-opacity:1"
           id="path3539"
           inkscape:connector-curvature="0" /></g><g
         id="g3541"
         transform="matrix(-1,0,0,-1,0,334.199)"
         style="fill:#000000;fill-opacity:0;stroke:#000000;stroke-opacity:1"><path
           d="m -224,158.199 -16,0 0,-28 16,0"
           style="fill:#000000;fill-opacity:0;stroke:#000000;stroke-width:4;stroke-linecap:butt;stroke-linejoin:miter;stroke-miterlimit:4;stroke-dasharray:none;stroke-opacity:1"
           id="path3543"
           inkscape:connector-curvature="0" /></g><g
         id="g3545"
         transform="matrix(-1,0,0,-1,0,334.199)"
         style="fill:#000000;fill-opacity:0;stroke:#000000;stroke-opacity:1"><path
           d="m -216,130.199 40,0 0,-12"
           style="fill:#000000;fill-opacity:0;stroke:#000000;stroke-width:4;stroke-linecap:butt;stroke-linejoin:miter;stroke-miterlimit:4;stroke-dasharray:none;stroke-opacity:1"
           id="path3547"
           inkscape:connector-curvature="0" /></g><g
         id="g3549"
         transform="matrix(-1,0,0,-1,0,334.199)"
         style="fill:#000000;fill-opacity:0;stroke:#000000;stroke-opacity:1"><path
           d="m -176,110.199 0,-16 -28,0"
           style="fill:#000000;fill-opacity:0;stroke:#000000;stroke-width:4;stroke-linecap:butt;stroke-linejoin:miter;stroke-miterlimit:4;stroke-dasharray:none;stroke-opacity:1"
           id="path3551"
           inkscape:connector-curvature="0" /></g><g
         id="g3553"
         transform="matrix(-1,0,0,-1,0,334.199)"
         style="fill:#000000;fill-opacity:0;stroke:#000000;stroke-opacity:1"><path
           d="m -216,158.199 12,0 0,-28"
           style="fill:#000000;fill-opacity:0;stroke:#000000;stroke-width:4;stroke-linecap:butt;stroke-linejoin:miter;stroke-miterlimit:4;stroke-dasharray:none;stroke-opacity:1"
           id="path3555"
           inkscape:connector-curvature="0" /></g><g
         id="g3557"
         transform="matrix(1,0,0,-1,0,334.199)"
         style="fill:#000000;fill-opacity:0;stroke:#000000;stroke-opacity:1"><path
           d="M 203.977,159.805 C 201.336,145.691 188.57,133.301 174.453,130.301"
           style="fill:#000000;fill-opacity:0;stroke:#000000;stroke-width:4;stroke-linecap:butt;stroke-linejoin:miter;stroke-miterlimit:4;stroke-dasharray:none;stroke-opacity:1"
           id="path3559"
           inkscape:connector-curvature="0" /></g><g
         id="g3561"
         transform="translate(0,334.199)"
         style="fill:#000000;fill-opacity:0;stroke:#000000;stroke-opacity:1"><path
           d="m 68,-202.199 28,0 0,-36 36,0 0,-28"
           style="fill:#000000;fill-opacity:0;stroke:#000000;stroke-width:4;stroke-linecap:butt;stroke-linejoin:miter;stroke-miterlimit:4;stroke-dasharray:none;stroke-opacity:1"
           id="path3563"
           inkscape:connector-curvature="0" /></g><g
         id="g3565"
         transform="translate(0,334.199)"
         style="fill:#000000;fill-opacity:0;stroke:#000000;stroke-opacity:1"><path
           d="m 112,-174.199 -16,0 0,-28 16,0"
           style="fill:#000000;fill-opacity:0;stroke:#000000;stroke-width:4;stroke-linecap:butt;stroke-linejoin:miter;stroke-miterlimit:4;stroke-dasharray:none;stroke-opacity:1"
           id="path3567"
           inkscape:connector-curvature="0" /></g><g
         id="g3569"
         transform="translate(0,334.199)"
         style="fill:#000000;fill-opacity:0;stroke:#000000;stroke-opacity:1"><path
           d="m 120,-202.199 40,0 0,-12"
           style="fill:#000000;fill-opacity:0;stroke:#000000;stroke-width:4;stroke-linecap:butt;stroke-linejoin:miter;stroke-miterlimit:4;stroke-dasharray:none;stroke-opacity:1"
           id="path3571"
           inkscape:connector-curvature="0" /></g><g
         id="g3573"
         transform="translate(0,334.199)"
         style="fill:#000000;fill-opacity:0;stroke:#000000;stroke-opacity:1"><path
           d="m 160,-222.199 0,-16 -28,0"
           style="fill:#000000;fill-opacity:0;stroke:#000000;stroke-width:4;stroke-linecap:butt;stroke-linejoin:miter;stroke-miterlimit:4;stroke-dasharray:none;stroke-opacity:1"
           id="path3575"
           inkscape:connector-curvature="0" /></g><g
         id="g3577"
         transform="translate(0,334.199)"
         style="fill:#000000;fill-opacity:0;stroke:#000000;stroke-opacity:1"><path
           d="m 120,-174.199 12,0 0,-28"
           style="fill:#000000;fill-opacity:0;stroke:#000000;stroke-width:4;stroke-linecap:butt;stroke-linejoin:miter;stroke-miterlimit:4;stroke-dasharray:none;stroke-opacity:1"
           id="path3579"
           inkscape:connector-curvature="0" /></g><g
         id="g3581"
         transform="matrix(1,0,0,-1,0,334.199)"
         style="fill:#000000;fill-opacity:0;stroke:#000000;stroke-opacity:1"><path
           d="m 161.555,202.184 c -14.114,-2.641 -26.504,-15.407 -29.504,-29.528"
           style="fill:#000000;fill-opacity:0;stroke:#000000;stroke-width:4;stroke-linecap:butt;stroke-linejoin:miter;stroke-miterlimit:4;stroke-dasharray:none;stroke-opacity:1"
           id="path3583"
           inkscape:connector-curvature="0" /></g><g
         id="g3585"
         transform="matrix(-1,0,0,1,0,334.199)"
         style="fill:#000000;fill-opacity:0;stroke:#000000;stroke-opacity:1"><path
           d="m -268,-202.199 28,0 0,-36 36,0 0,-28"
           style="fill:#000000;fill-opacity:0;stroke:#000000;stroke-width:4;stroke-linecap:butt;stroke-linejoin:miter;stroke-miterlimit:4;stroke-dasharray:none;stroke-opacity:1"
           id="path3587"
           inkscape:connector-curvature="0" /></g><g
         id="g3589"
         transform="matrix(-1,0,0,1,0,334.199)"
         style="fill:#000000;fill-opacity:0;stroke:#000000;stroke-opacity:1"><path
           d="m -224,-174.199 -16,0 0,-28 16,0"
           style="fill:#000000;fill-opacity:0;stroke:#000000;stroke-width:4;stroke-linecap:butt;stroke-linejoin:miter;stroke-miterlimit:4;stroke-dasharray:none;stroke-opacity:1"
           id="path3591"
           inkscape:connector-curvature="0" /></g><g
         id="g3593"
         transform="matrix(-1,0,0,1,0,334.199)"
         style="fill:#000000;fill-opacity:0;stroke:#000000;stroke-opacity:1"><path
           d="m -216,-202.199 40,0 0,-12"
           style="fill:#000000;fill-opacity:0;stroke:#000000;stroke-width:4;stroke-linecap:butt;stroke-linejoin:miter;stroke-miterlimit:4;stroke-dasharray:none;stroke-opacity:1"
           id="path3595"
           inkscape:connector-curvature="0" /></g><g
         id="g3597"
         transform="matrix(-1,0,0,1,0,334.199)"
         style="fill:#000000;fill-opacity:0;stroke:#000000;stroke-opacity:1"><path
           d="m -176,-222.199 0,-16 -28,0"
           style="fill:#000000;fill-opacity:0;stroke:#000000;stroke-width:4;stroke-linecap:butt;stroke-linejoin:miter;stroke-miterlimit:4;stroke-dasharray:none;stroke-opacity:1"
           id="path3599"
           inkscape:connector-curvature="0" /></g><g
         id="g3601"
         transform="matrix(-1,0,0,1,0,334.199)"
         style="fill:#000000;fill-opacity:0;stroke:#000000;stroke-opacity:1"><path
           d="m -216,-174.199 12,0 0,-28"
           style="fill:#000000;fill-opacity:0;stroke:#000000;stroke-width:4;stroke-linecap:butt;stroke-linejoin:miter;stroke-miterlimit:4;stroke-dasharray:none;stroke-opacity:1"
           id="path3603"
           inkscape:connector-curvature="0" /></g><g
         id="g3605"
         transform="matrix(1,0,0,-1,0,334.199)"
         style="fill:#000000;fill-opacity:0;stroke:#000000;stroke-opacity:1"><path
           d="m 203.992,172.641 c -2.64,14.113 -15.402,26.504 -29.523,29.504"
           style="fill:#000000;fill-opacity:0;stroke:#000000;stroke-width:4;stroke-linecap:butt;stroke-linejoin:miter;stroke-miterlimit:4;stroke-dasharray:none;stroke-opacity:1"
           id="path3607"
           inkscape:connector-curvature="0" /></g></g></g></svg>